<?xml version="1.0" encoding="iso-8859-1"?>
<!-- Uploaded to: SVG Repo, www.svgrepo.com, Generator: SVG Repo Mixer Tools -->
<svg height="800px" width="800px" version="1.1" id="Layer_1" xmlns="http://www.w3.org/2000/svg" xmlns:xlink="http://www.w3.org/1999/xlink" 
	 viewBox="0 0 512 512" xml:space="preserve">
<path style="fill:#FA6E51;" d="M512,256.006C512,397.402,397.394,512.004,256.004,512C114.606,512.004,0,397.402,0,256.006
	C-0.007,114.61,114.606,0,256.004,0C397.394,0,512,114.614,512,256.006z"/>
<path style="fill:#E8573F;" d="M512,256.005c0-14.387-1.245-28.476-3.526-42.214c-0.276-0.276-0.545-0.56-0.831-0.831
	c-0.519-0.547-102.958-102.985-103.505-103.505c-7.977-8.396-19.172-13.699-31.638-13.699c-24.123,0-43.745,19.623-43.745,43.745
	c0,12.243,5.117,23.254,13.255,31.193c0.512,0.553,6.721,6.791,6.911,6.99l-24.208,78.672c-1.736-0.212-3.492-0.355-5.284-0.355
	c-4.659,0-9.052,0.948-13.257,2.318c-0.025-0.022-0.053-0.041-0.077-0.063c-0.519-0.547-43.537-42.556-62.101-62.102
	c-7.914-8.334-19.023-13.598-31.394-13.598c-23.93,0-43.399,19.47-43.399,43.399c0,12.651,5.482,24.007,14.153,31.941
	c0.527,0.535,2.629,2.677,3.184,3.184c0.034,0.035,0.067,0.071,0.101,0.106l-35.049,70.097c-3.945-1.182-8.112-1.837-12.435-1.837
	c-23.93,0-43.399,19.47-43.399,43.399c0,12.371,5.266,23.479,13.599,31.393c0.518,0.547,102.958,102.987,103.506,103.507
	c0.224,0.237,0.46,0.457,0.686,0.687c13.817,2.306,27.986,3.568,42.457,3.568C397.394,512.004,512,397.401,512,256.005z"/>
<path style="fill:#F6F6F6;" d="M372.499,95.755c-24.123,0-43.745,19.623-43.745,43.745c0,15.588,8.22,29.26,20.528,37.009
	l-24.569,79.845c-1.735-0.212-3.491-0.355-5.283-0.355c-12.351,0-23.487,5.213-31.397,13.523l-35.941-25.671
	c2.486-5.465,3.908-11.513,3.908-17.897c0-23.93-19.47-43.399-43.399-43.399s-43.399,19.47-43.399,43.399
	c0,14.276,6.96,26.926,17.633,34.841l-35.244,70.487c-3.943-1.182-8.112-1.837-12.435-1.837c-23.93,0-43.399,19.47-43.399,43.399
	c0,23.93,19.47,43.399,43.399,43.399s43.399-19.47,43.399-43.399c0-14.85-7.505-27.971-18.914-35.799l35.017-70.033
	c4.383,1.493,9.061,2.341,13.943,2.341c12.748,0,24.194-5.559,32.142-14.341l35.682,25.487c-2.785,5.723-4.394,12.121-4.394,18.9
	c0,23.93,19.47,43.399,43.399,43.399c23.93,0,43.399-19.47,43.399-43.399c0-17.455-10.382-32.497-25.275-39.381l24.06-78.198
	c3.487,0.898,7.121,1.426,10.884,1.426c24.123,0,43.745-19.623,43.745-43.745S396.622,95.755,372.499,95.755z M139.155,402.891
	c-16.569,0-30.046-13.477-30.046-30.046c0-16.569,13.477-30.046,30.046-30.046s30.046,13.477,30.046,30.046
	C169.201,389.413,155.723,402.891,139.155,402.891z M212.601,256c-16.569,0-30.046-13.477-30.046-30.046
	s13.477-30.046,30.046-30.046s30.046,13.477,30.046,30.046S229.169,256,212.601,256z M349.476,299.4
	c0,16.569-13.477,30.046-30.046,30.046s-30.046-13.477-30.046-30.046c0-16.569,13.477-30.046,30.046-30.046
	C335.999,269.354,349.476,282.831,349.476,299.4z M372.499,169.892c-16.757,0-30.391-13.634-30.391-30.391
	s13.634-30.391,30.391-30.391s30.391,13.634,30.391,30.391S389.257,169.892,372.499,169.892z"/>
</svg>